<?xml version="1.0" encoding="utf-8"?>
<!-- Generator: Adobe Illustrator 18.1.1, SVG Export Plug-In . SVG Version: 6.00 Build 0)  -->
<svg version="1.1" id="Layer_1" xmlns="http://www.w3.org/2000/svg" xmlns:xlink="http://www.w3.org/1999/xlink" x="0px" y="0px"
	 viewBox="0 0 200 60" enable-background="new 0 0 200 60" xml:space="preserve">
<g>
	<path display="none" fill="#E30D19" d="M0.1,35V23.9c0-2.6,2.1-4.8,4.8-4.8H4.8c-2.6,0-4.8,2.1-4.8,4.8V35c0,2.6,2.1,4.8,4.8,4.8
		h0.1C2.3,39.8,0.1,37.7,0.1,35z"/>
	<path display="none" fill="#E30D19" d="M43.9,19.1h-0.1c2.6,0,4.8,2.1,4.8,4.8V35c0,2.6-2.1,4.8-4.8,4.8h0.1c2.6,0,4.8-2.1,4.8-4.8
		V23.9C48.7,21.3,46.6,19.1,43.9,19.1z"/>
	<path fill="#E30D19" d="M13.9,19.1v20.7h-9c-2.6,0-4.8-2.1-4.8-4.8V23.9c0-2.6,2.1-4.8,4.8-4.8H13.9z"/>
	<path fill="#E30D19" d="M61.3,0v60H18.6v-6.4c0,0,0.1,0,0.1,0h11.1c2.6,0,4.8-2.1,4.8-4.8v-9h9c2.6,0,4.8-2.1,4.8-4.8V23.9
		c0-2.6-2.1-4.8-4.8-4.8h-9v-9c0-2.6-2.1-4.8-4.8-4.8H18.7c0,0-0.1,0-0.1,0V0H61.3z"/>
</g>
<g>
	<path fill="#FFFFFF" d="M69.5,39.6V25.4c0-1,0.1-1.9,0.3-2.7c0.2-0.9,0.6-1.6,1.2-2.3c0.6-0.7,1.4-1.2,2.4-1.6c1-0.4,2.4-0.6,4-0.6
		h4.7c0.3,0,0.5,0.1,0.6,0.3c0.1,0.2,0.2,0.4,0.2,0.6v3.6c0,0.2-0.1,0.4-0.2,0.5c-0.1,0.2-0.3,0.2-0.6,0.2h-4.6
		c-0.4,0-0.8,0.1-1,0.2c-0.2,0.1-0.4,0.2-0.5,0.4c-0.1,0.2-0.2,0.4-0.2,0.6c0,0.2,0,0.5,0,0.8v14.2c0,0.2-0.1,0.4-0.2,0.5
		c-0.2,0.2-0.3,0.2-0.5,0.2h-4.7c-0.2,0-0.4-0.1-0.5-0.2C69.6,40,69.5,39.8,69.5,39.6z"/>
	<path fill="#FFFFFF" d="M85,34.1v-0.3c0-2.3,0.8-3.9,2.3-4.9c1.5-1,3.9-1.6,7.2-1.6h2.1v-1.4c0-1.1-0.3-1.8-0.8-2.2
		c-0.5-0.3-1.2-0.5-2.1-0.5c-0.6,0-1.2,0-1.9,0c-0.6,0-1.2,0-1.8,0.1c-0.6,0-1.1,0.1-1.6,0.1c-0.5,0-0.8,0.1-1.1,0.1h-0.2
		c-0.2,0-0.4-0.1-0.5-0.2c-0.1-0.1-0.2-0.3-0.2-0.5v-3.1c0-0.4,0.2-0.7,0.7-0.8c0.7-0.2,1.7-0.3,2.9-0.5s2.5-0.3,3.8-0.3
		c1.4,0,2.6,0.1,3.7,0.4c1.1,0.3,2.1,0.8,2.8,1.4c0.8,0.6,1.4,1.4,1.8,2.4c0.4,1,0.6,2.2,0.6,3.6v13.8c0,0.2-0.1,0.4-0.2,0.5
		c-0.2,0.2-0.3,0.2-0.5,0.2h-4.3c-0.2,0-0.4-0.1-0.5-0.2C97.1,40,97,39.8,97,39.6V39c-0.7,0.5-1.5,1-2.4,1.3c-0.8,0.3-1.8,0.5-3,0.5
		c-0.9,0-1.7-0.1-2.4-0.3c-0.8-0.2-1.5-0.6-2.1-1.1c-0.6-0.5-1.1-1.2-1.5-2C85.2,36.4,85,35.3,85,34.1z M91.1,34.1
		c0,0.8,0.2,1.4,0.6,1.6c0.4,0.2,1,0.3,1.8,0.3c0.6,0,1.1-0.1,1.7-0.3s1-0.4,1.5-0.6v-4.3h-2.2c-0.7,0-1.2,0.1-1.7,0.2
		c-0.4,0.1-0.8,0.3-1,0.5c-0.3,0.2-0.4,0.5-0.5,0.9c-0.1,0.4-0.2,0.8-0.2,1.2V34.1z"/>
	<path fill="#FFFFFF" d="M106,39.5c0,0,0-0.1,0-0.1c0-0.1,0-0.1,0-0.2l4.6-17.8c0.2-0.7,0.4-1.3,0.8-1.8c0.4-0.5,0.8-0.8,1.3-1.1
		s1-0.4,1.5-0.5c0.5-0.1,1-0.1,1.6-0.1c0.6,0,1.1,0,1.7,0.1c0.6,0.1,1.1,0.3,1.6,0.5c0.5,0.2,0.9,0.6,1.3,1.1
		c0.4,0.5,0.7,1.1,0.9,1.8l4.6,17.9v0.2c0,0.3-0.1,0.5-0.3,0.6c-0.2,0.2-0.4,0.3-0.7,0.3h-4.3c-0.3,0-0.5-0.1-0.7-0.3
		c-0.2-0.2-0.3-0.4-0.3-0.6l-3.7-16.1c0-0.2-0.1-0.2-0.2-0.2s-0.1,0.1-0.2,0.2l-3.7,16c0,0.3-0.2,0.5-0.3,0.7s-0.4,0.3-0.7,0.3h-4
		c-0.3,0-0.5-0.1-0.6-0.3C106.1,39.9,106,39.7,106,39.5z"/>
	<path fill="#FFFFFF" d="M128.2,39.5V19.1c0-0.3,0.1-0.5,0.2-0.6c0.2-0.1,0.3-0.2,0.6-0.2h4.3c0.2,0,0.4,0.1,0.6,0.2
		c0.2,0.1,0.3,0.3,0.3,0.6v10.4c0,0.2,0,0.3,0.2,0.3c0.1,0,0.2-0.1,0.3-0.2l6.4-10.3c0.2-0.3,0.4-0.5,0.6-0.7
		c0.2-0.2,0.4-0.2,0.7-0.2h4.4c0.2,0,0.4,0.1,0.5,0.2c0.2,0.2,0.2,0.3,0.2,0.5v20.5c0,0.2-0.1,0.4-0.3,0.6c-0.2,0.2-0.4,0.3-0.6,0.3
		h-4.3c-0.2,0-0.4-0.1-0.6-0.3c-0.2-0.2-0.2-0.4-0.2-0.6v-9.9c0-0.2,0-0.2-0.2-0.2c-0.1,0-0.2,0.1-0.3,0.2l-6.2,9.8
		c-0.3,0.4-0.5,0.7-0.8,0.8s-0.6,0.2-0.9,0.2h-4.3c-0.2,0-0.4-0.1-0.6-0.2C128.3,40.1,128.2,39.9,128.2,39.5z"/>
	<path fill="#FFFFFF" d="M150.3,18.9c0-0.4,0.3-0.6,0.8-0.6h5.1c0.2,0,0.4,0.1,0.5,0.2c0.1,0.1,0.2,0.3,0.3,0.5l3.5,14.6
		c0.1,0.5,0.3,0.7,0.5,0.7h0h0.2h0.2l3.6-15.3c0-0.2,0.1-0.4,0.3-0.5c0.1-0.1,0.3-0.2,0.5-0.2h5.1c0.6,0,0.9,0.3,0.7,0.9L165,41.9
		c-0.3,1.1-0.7,2-1,2.8s-0.9,1.4-1.5,1.9c-0.6,0.5-1.4,0.9-2.4,1.2c-1,0.3-2.1,0.4-3.5,0.4c-0.4,0-0.8,0-1.2-0.1
		c-0.4,0-0.9-0.1-1.3-0.1c-0.4-0.1-0.8-0.1-1.2-0.2s-0.7-0.1-0.9-0.2c-0.2-0.1-0.4-0.2-0.6-0.2c-0.2-0.1-0.3-0.2-0.3-0.4v-3
		c0-0.2,0.1-0.4,0.2-0.5c0.2-0.1,0.3-0.2,0.5-0.2h0.1c0.3,0,0.7,0.1,1.1,0.1c0.4,0,0.9,0.1,1.3,0.1c0.5,0,0.9,0.1,1.3,0.1
		c0.4,0,0.8,0,1.1,0c0.7,0,1.2-0.1,1.6-0.4s0.7-0.8,0.9-1.6l0.4-1.2H159c-0.4,0-0.7,0-1-0.1c-0.3-0.1-0.6-0.2-0.9-0.4
		s-0.6-0.6-0.9-1.1c-0.3-0.5-0.5-1.2-0.8-2l-5.1-17.5C150.3,19.1,150.3,19,150.3,18.9z"/>
	<path fill="#FFFFFF" d="M174.6,39.9V19.3c0-0.3,0.1-0.6,0.3-0.7c0.2-0.2,0.5-0.3,0.8-0.3h4.9c0.6,0,1.1,0.3,1.4,0.8l4.5,8.5
		c0.1,0.3,0.2,0.4,0.3,0.4c0.1,0,0.2-0.1,0.3-0.4l4.5-8.5c0.3-0.5,0.7-0.8,1.3-0.8h4.9c0.3,0,0.6,0.1,0.8,0.3
		c0.2,0.2,0.3,0.4,0.3,0.8v20.6c0,0.2-0.1,0.3-0.2,0.3c-0.1,0.1-0.2,0.1-0.4,0.1h-4.9c-0.1,0-0.2-0.1-0.3-0.2
		c-0.1-0.1-0.1-0.3-0.1-0.4V27.4c0-0.2-0.1-0.2-0.2-0.2c-0.1,0-0.2,0.1-0.2,0.2l-2.7,4.9c-0.2,0.4-0.5,0.5-0.9,0.5h-4.7
		c-0.4,0-0.7-0.2-0.9-0.5l-2.7-4.9c-0.1-0.1-0.2-0.2-0.2-0.2c-0.1,0-0.2,0.1-0.2,0.2v12.4c0,0.2,0,0.3-0.1,0.4
		c-0.1,0.1-0.2,0.2-0.4,0.2h-4.9c-0.1,0-0.3,0-0.4-0.1C174.7,40.2,174.6,40.1,174.6,39.9z"/>
</g>
</svg>
